HIERARCHY
ROOT Hips
{
	OFFSET 0.000000 103.266502 0.000000
	CHANNELS 6 Xposition Yposition Zposition Xrotation Yrotation Zrotation 
	JOINT Spine
	{
		OFFSET -0.002400 12.777504 0.315300
		CHANNELS 3 Xrotation Yrotation Zrotation
		JOINT Spine1
		{
			OFFSET -0.002067 5.816869 0.032633
			CHANNELS 3 Xrotation Yrotation Zrotation
			JOINT Spine1_split
			{
				OFFSET -0.002067 5.816869 0.032633
				CHANNELS 3 Xrotation Yrotation Zrotation
				JOINT Spine2
				{
					OFFSET -0.002067 5.816869 0.032633
					CHANNELS 3 Xrotation Yrotation Zrotation
					JOINT Neck
					{
						OFFSET -0.003700 21.199493 -0.826900
						CHANNELS 3 Xrotation Yrotation Zrotation
						JOINT Head
						{
							OFFSET 0.000000 20.442200 4.834800
							CHANNELS 3 Xrotation Yrotation Zrotation
							JOINT HeadTop_End
							{
								OFFSET 0.000000 34.668396 4.968400
								CHANNELS 3 Xrotation Yrotation Zrotation
								End Site
								{
									OFFSET 0.000000 0.000000 0.000000
								}
							}
						}
					}
					JOINT LeftShoulder
					{
						OFFSET 3.288150 8.794197 -1.372250
						CHANNELS 3 Xrotation Yrotation Zrotation
						JOINT LeftShoulder_split
						{
							OFFSET 3.288150 8.794197 -1.372250
							CHANNELS 3 Xrotation Yrotation Zrotation
							JOINT LeftArm
							{
								OFFSET 11.953299 -2.279007 -0.146200
								CHANNELS 3 Xrotation Yrotation Zrotation
								JOINT LeftForeArm
								{
									OFFSET 18.448900 0.000000 0.000000
									CHANNELS 3 Xrotation Yrotation Zrotation
									JOINT LeftHand
									{
										OFFSET 29.527798 0.000000 0.000000
										CHANNELS 3 Xrotation Yrotation Zrotation
										JOINT LeftHandThumb1
										{
											OFFSET 10.739754 -2.369614 9.225399
											CHANNELS 3 Xrotation Yrotation Zrotation
											JOINT LeftHandThumb2
											{
												OFFSET 4.926170 -2.844131 2.844125
												CHANNELS 3 Xrotation Yrotation Zrotation
												JOINT LeftHandThumb3
												{
													OFFSET 4.614891 -2.664413 2.664409
													CHANNELS 3 Xrotation Yrotation Zrotation
													JOINT LeftHandThumb4
													{
														OFFSET 4.432465 -2.559082 2.559083
														CHANNELS 3 Xrotation Yrotation Zrotation
														End Site
														{
															OFFSET 0.000000 0.000000 0.000000
														}
													}
												}
											}
										}
										JOINT LeftHandIndex1
										{
											OFFSET 26.467674 0.187653 6.405298
											CHANNELS 3 Xrotation Yrotation Zrotation
											JOINT LeftHandIndex2
											{
												OFFSET 8.792900 0.000000 0.000000
												CHANNELS 3 Xrotation Yrotation Zrotation
												JOINT LeftHandIndex3
												{
													OFFSET 10.075203 0.000000 0.000000
													CHANNELS 3 Xrotation Yrotation Zrotation
													End Site
													{
														OFFSET 0.000000 0.000000 0.000000
													}
												}
											}
										}
										JOINT LeftHandMiddle1
										{
											OFFSET 25.764404 0.000000 0.000000
											CHANNELS 3 Xrotation Yrotation Zrotation
											JOINT LeftHandMiddle2
											{
												OFFSET 9.393974 0.000000 0.000000
												CHANNELS 3 Xrotation Yrotation Zrotation
												JOINT LeftHandMiddle3
												{
													OFFSET 10.771950 0.000000 0.000000
													CHANNELS 3 Xrotation Yrotation Zrotation
													End Site
													{
														OFFSET 0.000000 0.000000 0.000000
													}
												}
											}
										}
										JOINT LeftHandRing1
										{
											OFFSET 24.660927 0.144547 -6.225808
											CHANNELS 3 Xrotation Yrotation Zrotation
											JOINT LeftHandRing2
											{
												OFFSET 9.393799 0.000000 0.000000
												CHANNELS 3 Xrotation Yrotation Zrotation
												JOINT LeftHandRing3
												{
													OFFSET 9.928497 0.000000 0.000000
													CHANNELS 3 Xrotation Yrotation Zrotation
													End Site
													{
														OFFSET 0.000000 0.000000 0.000000
													}
												}
											}
										}
										JOINT LeftHandPinky1
										{
											OFFSET 23.655350 0.125290 -12.815412
											CHANNELS 3 Xrotation Yrotation Zrotation
											JOINT LeftHandPinky2
											{
												OFFSET 8.425102 0.000000 0.000000
												CHANNELS 3 Xrotation Yrotation Zrotation
												JOINT LeftHandPinky3
												{
													OFFSET 8.147003 0.000000 0.000000
													CHANNELS 3 Xrotation Yrotation Zrotation
													End Site
													{
														OFFSET 0.000000 0.000000 0.000000
													}
												}
											}
										}
									}
								}
							}
						}
					}
					JOINT RightShoulder
					{
						OFFSET -3.249400 8.794197 -1.372250
						CHANNELS 3 Xrotation Yrotation Zrotation
						JOINT RightShoulder_split
						{
							OFFSET -3.249400 8.794197 -1.372250
							CHANNELS 3 Xrotation Yrotation Zrotation
							JOINT RightArm
							{
								OFFSET -11.953299 -2.279007 -0.146200
								CHANNELS 3 Xrotation Yrotation Zrotation
								JOINT RightForeArm
								{
									OFFSET -18.448900 0.000000 0.000000
									CHANNELS 3 Xrotation Yrotation Zrotation
									JOINT RightHand
									{
										OFFSET -29.527802 0.000000 0.000000
										CHANNELS 3 Xrotation Yrotation Zrotation
										JOINT RightHandThumb1
										{
											OFFSET -10.739754 -2.369614 9.225399
											CHANNELS 3 Xrotation Yrotation Zrotation
											JOINT RightHandThumb2
											{
												OFFSET -4.926170 -2.844131 2.844125
												CHANNELS 3 Xrotation Yrotation Zrotation
												JOINT RightHandThumb3
												{
													OFFSET -4.614891 -2.664413 2.664409
													CHANNELS 3 Xrotation Yrotation Zrotation
													JOINT RightHandThumb4
													{
														OFFSET -4.432465 -2.559082 2.559083
														CHANNELS 3 Xrotation Yrotation Zrotation
														End Site
														{
															OFFSET 0.000000 0.000000 0.000000
														}
													}
												}
											}
										}
										JOINT RightHandIndex1
										{
											OFFSET -26.467674 0.187653 6.405298
											CHANNELS 3 Xrotation Yrotation Zrotation
											JOINT RightHandIndex2
											{
												OFFSET -8.792900 0.000000 0.000000
												CHANNELS 3 Xrotation Yrotation Zrotation
												JOINT RightHandIndex3
												{
													OFFSET -10.075203 0.000000 0.000000
													CHANNELS 3 Xrotation Yrotation Zrotation
													End Site
													{
														OFFSET 0.000000 0.000000 0.000000
													}
												}
											}
										}
										JOINT RightHandMiddle1
										{
											OFFSET -25.764404 0.000000 0.000000
											CHANNELS 3 Xrotation Yrotation Zrotation
											JOINT RightHandMiddle2
											{
												OFFSET -9.393974 0.000000 0.000000
												CHANNELS 3 Xrotation Yrotation Zrotation
												JOINT RightHandMiddle3
												{
													OFFSET -10.771950 0.000000 0.000000
													CHANNELS 3 Xrotation Yrotation Zrotation
													End Site
													{
														OFFSET 0.000000 0.000000 0.000000
													}
												}
											}
										}
										JOINT RightHandRing1
										{
											OFFSET -24.660927 0.144547 -6.225808
											CHANNELS 3 Xrotation Yrotation Zrotation
											JOINT RightHandRing2
											{
												OFFSET -9.393799 0.000000 0.000000
												CHANNELS 3 Xrotation Yrotation Zrotation
												JOINT RightHandRing3
												{
													OFFSET -9.928497 0.000000 0.000000
													CHANNELS 3 Xrotation Yrotation Zrotation
													End Site
													{
														OFFSET 0.000000 0.000000 0.000000
													}
												}
											}
										}
										JOINT RightHandPinky1
										{
											OFFSET -23.655350 0.125290 -12.815412
											CHANNELS 3 Xrotation Yrotation Zrotation
											JOINT RightHandPinky2
											{
												OFFSET -8.425102 0.000000 0.000000
												CHANNELS 3 Xrotation Yrotation Zrotation
												JOINT RightHandPinky3
												{
													OFFSET -8.147003 0.000000 0.000000
													CHANNELS 3 Xrotation Yrotation Zrotation
													End Site
													{
														OFFSET 0.000000 0.000000 0.000000
													}
												}
											}
										}
									}
								}
							}
						}
					}
				}
			}
		}
	}
	JOINT LeftUpLeg
	{
		OFFSET 11.394100 -6.187798 -0.413800
		CHANNELS 3 Xrotation Yrotation Zrotation
		JOINT LeftLeg
		{
			OFFSET 0.430247 -32.302673 3.732800
			CHANNELS 3 Xrotation Yrotation Zrotation
			JOINT LeftFoot
			{
				OFFSET -0.430247 -48.264931 -6.423300
				CHANNELS 3 Xrotation Yrotation Zrotation
				JOINT LeftToeBase
				{
					OFFSET 4.230900 -16.068199 23.438400
					CHANNELS 3 Xrotation Yrotation Zrotation
					JOINT LeftToe_End
					{
						OFFSET 4.510700 0.695400 19.974600
						CHANNELS 3 Xrotation Yrotation Zrotation
						End Site
						{
							OFFSET 0.000000 0.000000 0.000000
						}
					}
				}
			}
		}
	}
	JOINT RightUpLeg
	{
		OFFSET -11.333700 -6.187798 -0.413800
		CHANNELS 3 Xrotation Yrotation Zrotation
		JOINT RightLeg
		{
			OFFSET -0.430392 -32.302628 3.733000
			CHANNELS 3 Xrotation Yrotation Zrotation
			JOINT RightFoot
			{
				OFFSET 0.430392 -48.264973 -6.423500
				CHANNELS 3 Xrotation Yrotation Zrotation
				JOINT RightToeBase
				{
					OFFSET -4.230900 -16.068199 23.438400
					CHANNELS 3 Xrotation Yrotation Zrotation
					JOINT RightToe_End
					{
						OFFSET -4.510700 0.695400 19.974600
						CHANNELS 3 Xrotation Yrotation Zrotation
						End Site
						{
							OFFSET 0.000000 0.000000 0.000000
						}
					}
				}
			}
		}
	}
}
MOTION
Frames: 4
Frame Time: 0.016667
3.841172 98.890907 94.114212 -171.511555 67.281270 178.081009 10.491294 -3.365672 -6.087645 5.905954 -0.746153 -0.137392 0.000000 0.000000 0.000000 5.913744 -0.679941 -0.131286 -10.724001 -0.020889 2.039224 -4.215059 13.545560 -3.367739 0.000000 0.000001 -0.000000 4.565328 8.264139 -9.764210 0.000000 0.000000 0.000000 -7.251015 -13.343452 -59.256495 0.000002 -11.301084 -0.000007 9.160494 -15.323022 -1.192326 -3.469768 3.607318 7.883194 9.703626 22.223509 2.891166 -5.879063 9.699141 15.674886 0.000001 -0.000001 0.000002 0.162357 3.429610 -10.498168 0.209649 1.554736 -15.358577 0.000000 0.000000 0.000000 0.362543 4.206372 -18.344222 0.474608 2.311790 -23.200226 0.000000 0.000000 -0.000001 0.689027 4.991709 -26.673256 0.865735 3.066785 -31.521456 -0.000000 -0.000000 -0.000004 0.902507 5.377889 -30.995354 1.110591 3.433628 -35.838170 -0.000000 0.000000 -0.000002 1.424810 6.319838 17.460016 0.000000 0.000000 0.000000 -2.214347 -4.391927 64.929875 0.000004 27.167076 0.000009 -23.146972 -17.077645 -15.152674 -1.986174 -5.435663 -3.761591 8.766474 -20.697678 -3.062052 -5.504774 -5.510976 -14.718532 0.000000 0.000001 0.000002 2.057127 -6.108263 55.293568 5.419353 -4.594514 99.429393 0.000000 0.000000 0.000000 2.592851 -6.426547 62.973443 4.946631 -4.648187 93.567308 -0.000001 0.000002 -0.000003 2.854993 -6.549357 66.538590 4.919141 -4.649814 93.228209 0.000000 -0.000000 0.000003 1.542112 -5.696829 47.168214 2.898963 -4.313210 67.797339 -0.000001 0.000000 0.000000 -28.627053 9.287580 6.442660 32.128459 4.668436 2.853282 0.954488 0.930307 -13.721967 -1.861496 0.000009 -0.000002 -0.000000 0.000004 -0.000000 -8.292706 -9.666295 -13.163715 27.622808 -9.414809 -2.927304 -15.405683 -4.807941 10.053325 -6.933661 -0.000001 0.000003 -0.000000 -0.000000 -0.000000 
4.011449 98.827049 93.673508 -172.158962 65.380360 178.756187 10.531506 -3.345686 -6.306747 5.937754 -0.731593 -0.053678 0.000000 0.000000 0.000000 5.944726 -0.659876 -0.046724 -10.723269 -0.058144 2.025081 -4.160083 14.345673 -3.272149 -0.000000 0.000002 0.000000 4.439874 8.094339 -9.464047 0.000000 0.000000 0.000000 -6.237169 -11.834756 -59.241680 0.000001 -11.844599 0.000009 9.598144 -13.812545 -2.183857 -3.469768 3.607318 7.883191 9.703627 22.223513 2.891167 -5.879064 9.699138 15.674888 -0.000000 0.000000 -0.000002 0.162357 3.429611 -10.498172 0.209649 1.554736 -15.358579 0.000000 0.000000 0.000001 0.362543 4.206372 -18.344222 0.474608 2.311791 -23.200223 0.000000 -0.000000 -0.000000 0.689027 4.991710 -26.673256 0.865735 3.066785 -31.521449 -0.000000 0.000000 -0.000003 0.902507 5.377888 -30.995361 1.110591 3.433628 -35.838170 0.000000 -0.000000 -0.000003 1.440122 6.247022 17.504253 0.000000 0.000000 0.000000 -2.407542 -5.275750 64.582512 0.000001 26.607738 0.000003 -21.465300 -16.875367 -14.388033 -1.986176 -5.435662 -3.761596 8.766473 -20.697676 -3.062053 -5.504774 -5.510974 -14.718532 0.000000 -0.000001 0.000001 2.057126 -6.108264 55.293568 5.419354 -4.594515 99.429393 -0.000001 0.000000 -0.000002 2.592850 -6.426547 62.973443 4.946628 -4.648190 93.567308 0.000001 -0.000001 -0.000000 2.854992 -6.549355 66.538590 4.919142 -4.649814 93.228209 0.000001 -0.000001 0.000003 1.542111 -5.696829 47.168214 2.898963 -4.313210 67.797339 0.000002 0.000000 0.000000 -28.095116 9.122772 6.484509 30.869812 5.574610 3.115023 0.513442 1.318470 -13.109293 -1.662275 -0.000024 -0.000000 0.000000 0.000000 -0.000000 -7.546576 -10.201962 -13.207994 27.311210 -9.414769 -2.902293 -15.536683 -6.334040 10.258315 -6.963194 -0.000009 -0.000000 -0.000000 -0.000000 -0.000000 
4.189264 98.756897 93.167892 -172.647689 63.483910 179.279775 10.600016 -3.308105 -6.553754 5.956434 -0.710479 0.027105 0.000000 0.000000 0.000000 5.962353 -0.633106 0.034883 -10.724159 -0.096654 2.008864 -4.103970 15.186859 -3.159079 -0.000000 -0.000001 -0.000000 4.315416 7.926137 -9.159262 0.000000 0.000000 0.000000 -5.366276 -10.439505 -59.331155 -0.000011 -12.405900 0.000002 10.104736 -12.230447 -3.230673 -3.469769 3.607318 7.883192 9.703626 22.223513 2.891168 -5.879064 9.699139 15.674888 0.000003 -0.000001 -0.000002 0.162357 3.429611 -10.498170 0.209649 1.554736 -15.358575 0.000001 0.000000 0.000000 0.362544 4.206372 -18.344222 0.474608 2.311790 -23.200223 -0.000000 0.000000 0.000000 0.689027 4.991710 -26.673251 0.865735 3.066786 -31.521460 -0.000001 -0.000000 -0.000000 0.902507 5.377889 -30.995357 1.110591 3.433628 -35.838166 -0.000000 0.000000 0.000001 1.452240 6.186897 17.530468 0.000000 0.000000 0.000000 -2.514460 -6.093100 64.276158 0.000002 26.010576 0.000011 -19.830669 -16.637564 -13.686405 -1.986174 -5.435660 -3.761593 8.766474 -20.697676 -3.062048 -5.504775 -5.510972 -14.718532 -0.000001 0.000002 -0.000001 2.057127 -6.108263 55.293568 5.419354 -4.594514 99.429393 0.000001 0.000001 -0.000002 2.592852 -6.426547 62.973443 4.946630 -4.648190 93.567308 -0.000000 -0.000000 0.000001 2.854994 -6.549356 66.538590 4.919142 -4.649813 93.228209 -0.000000 -0.000001 0.000003 1.542113 -5.696829 47.168211 2.898964 -4.313211 67.797339 -0.000001 0.000000 0.000000 -27.420816 8.900587 6.463172 29.500154 6.266640 3.332672 0.213509 1.824980 -12.570468 -1.559813 -0.000018 -0.000001 -0.000000 0.000001 0.000000 -6.708257 -10.752399 -13.263714 26.939957 -9.427615 -2.871389 -15.652429 -7.840947 10.513872 -6.986891 -0.000018 0.000001 0.000000 -0.000000 0.000000 
4.372319 98.683441 92.594528 -173.029988 61.600670 179.697974 10.681593 -3.255976 -6.816042 5.960718 -0.683483 0.100005 0.000000 0.000000 0.000000 5.965376 -0.600650 0.108446 -10.728264 -0.136314 1.990618 -4.053719 16.057592 -3.028831 0.000000 0.000000 0.000000 4.191120 7.756938 -8.850423 0.000000 0.000000 0.000000 -4.627755 -9.151168 -59.511718 0.000000 -12.942807 -0.000005 10.682216 -10.597883 -4.326566 -3.469768 3.607318 7.883191 9.703628 22.223511 2.891167 -5.879063 9.699140 15.674888 0.000000 -0.000002 -0.000003 0.162357 3.429611 -10.498170 0.209649 1.554736 -15.358577 0.000001 0.000000 0.000001 0.362543 4.206372 -18.344225 0.474608 2.311791 -23.200228 -0.000000 -0.000000 0.000001 0.689027 4.991708 -26.673253 0.865735 3.066785 -31.521456 -0.000000 0.000001 -0.000004 0.902507 5.377889 -30.995357 1.110591 3.433628 -35.838170 0.000001 0.000001 -0.000001 1.460387 6.141545 17.531882 0.000000 0.000000 0.000000 -2.497085 -6.813964 64.020340 -0.000018 25.388723 0.000021 -18.293282 -16.391163 -13.073735 -1.986175 -5.435660 -3.761599 8.766473 -20.697678 -3.062053 -5.504776 -5.510973 -14.718533 -0.000001 -0.000001 0.000000 2.057126 -6.108262 55.293568 5.419355 -4.594514 99.429393 0.000001 0.000000 -0.000002 2.592850 -6.426545 62.973443 4.946632 -4.648187 93.567308 -0.000000 -0.000002 0.000001 2.854992 -6.549356 66.538590 4.919143 -4.649816 93.228209 0.000002 0.000000 0.000002 1.542113 -5.696830 47.168214 2.898965 -4.313209 67.797346 0.000002 -0.000000 0.000000 -26.637026 8.647989 6.389980 28.057442 6.788724 3.511630 0.096896 2.438349 -12.198446 -1.568507 -0.000004 -0.000003 -0.000000 0.000001 -0.000000 -5.761459 -11.321035 -13.318490 26.471358 -9.448686 -2.833869 -15.753157 -9.340927 10.823505 -6.992212 0.000005 0.000001 -0.000000 -0.000000 -0.000000 
